<mxfile host="65bd71144e">
    <diagram id="YwgWoGoDFg6LenPft3_W" name="Page-1">
        <mxGraphModel dx="1057" dy="445" grid="1" gridSize="10" guides="1" tooltips="1" connect="1" arrows="1" fold="1" page="1" pageScale="1" pageWidth="827" pageHeight="1169" math="0" shadow="0">
            <root>
                <mxCell id="0"/>
                <mxCell id="1" parent="0"/>
                <mxCell id="4" value="&lt;b&gt;Google &lt;/b&gt;Cloud Platform" style="fillColor=#FFFFFF;strokeColor=none;shadow=0;gradientColor=none;fontSize=14;align=left;spacing=10;fontColor=#717171;9E9E9E;verticalAlign=top;spacingTop=-4;fontStyle=0;spacingLeft=40;html=1;container=0;" parent="1" vertex="1">
                    <mxGeometry x="150" y="420" width="690" height="860" as="geometry"/>
                </mxCell>
                <mxCell id="13" value="楽天API" style="rounded=0;whiteSpace=wrap;html=1;fillColor=none;" parent="1" vertex="1">
                    <mxGeometry x="354" y="250" width="120" height="60" as="geometry"/>
                </mxCell>
                <mxCell id="15" style="edgeStyle=orthogonalEdgeStyle;html=1;exitX=0.5;exitY=0;exitDx=0;exitDy=0;entryX=0.5;entryY=1;entryDx=0;entryDy=0;fontColor=#000000;startArrow=classic;startFill=1;endArrow=none;endFill=0;strokeColor=#000000;" parent="1" source="18" target="13" edge="1">
                    <mxGeometry relative="1" as="geometry">
                        <mxPoint x="575" y="450" as="sourcePoint"/>
                    </mxGeometry>
                </mxCell>
                <mxCell id="30" style="edgeStyle=orthogonalEdgeStyle;jumpStyle=arc;html=1;exitX=0.5;exitY=1;exitDx=0;exitDy=0;entryX=0.5;entryY=0;entryDx=0;entryDy=0;strokeColor=#000000;fontColor=#000000;startArrow=none;startFill=0;endArrow=classic;endFill=1;" parent="1" source="29" target="25" edge="1">
                    <mxGeometry relative="1" as="geometry"/>
                </mxCell>
                <mxCell id="29" value="外部" style="rounded=0;whiteSpace=wrap;html=1;fillColor=none;" parent="1" vertex="1">
                    <mxGeometry x="650" y="250" width="120" height="60" as="geometry"/>
                </mxCell>
                <mxCell id="5" value="" style="shape=mxgraph.gcp2.google_cloud_platform;fillColor=#F6F6F6;strokeColor=none;shadow=0;gradientColor=none;" parent="1" vertex="1">
                    <mxGeometry x="170" y="430" width="23" height="20" as="geometry">
                        <mxPoint x="20" y="10" as="offset"/>
                    </mxGeometry>
                </mxCell>
                <mxCell id="23" style="edgeStyle=orthogonalEdgeStyle;html=1;exitX=0.5;exitY=1;exitDx=0;exitDy=0;entryX=0;entryY=0.5;entryDx=0;entryDy=0;strokeColor=#000000;fontColor=#000000;startArrow=none;startFill=0;endArrow=classic;endFill=1;" parent="1" source="7" target="20" edge="1">
                    <mxGeometry relative="1" as="geometry">
                        <Array as="points">
                            <mxPoint x="405" y="600"/>
                            <mxPoint x="600" y="600"/>
                            <mxPoint x="600" y="555"/>
                        </Array>
                    </mxGeometry>
                </mxCell>
                <mxCell id="7" value="" style="strokeColor=#dddddd;shadow=1;strokeWidth=1;rounded=1;absoluteArcSize=1;arcSize=2;fontColor=#000000;" parent="1" vertex="1">
                    <mxGeometry x="340" y="530" width="130" height="60" as="geometry"/>
                </mxCell>
                <mxCell id="8" value="&lt;font color=&quot;#000000&quot;&gt;Online St&lt;/font&gt;&lt;br&gt;Datastore" style="editableCssRules=.*;html=1;fontColor=#999999;shape=image;verticalLabelPosition=middle;labelBackgroundColor=#ffffff;verticalAlign=middle;labelPosition=right;align=left;spacingLeft=20;part=1;points=[];imageAspect=0;image=data:image/svg+xml,PHN2ZyB4bWxucz0iaHR0cDovL3d3dy53My5vcmcvMjAwMC9zdmciIHhtbG5zOnY9Imh0dHBzOi8vdmVjdGEuaW8vbmFubyIgd2lkdGg9IjMwIiBoZWlnaHQ9IjIxIiB2aWV3Qm94PSIwIDAgMzAgMjEiPiYjeGE7CTxzdHlsZSB0eXBlPSJ0ZXh0L2NzcyI+JiN4YTsJLnN0MHtmaWxsOiM0Mjg1ZjQ7fSYjeGE7CS5zdDF7ZmlsbDojNjY5ZGY2O30mI3hhOwkuc3Qye2ZpbGw6I2FlY2JmYTt9JiN4YTsJLnN0M3tmaWxsOiNmZmY7fSYjeGE7CTwvc3R5bGU+JiN4YTsJPHBhdGggZD0iTTAgMGwxLjUgMS41aDZMOSAweiIgY2xhc3M9InN0MiIvPiYjeGE7CTxwYXRoIGQ9Ik05IDlWMEw3LjUgMS41djZ6IiBjbGFzcz0ic3QxIi8+JiN4YTsJPHBhdGggZD0iTTAgOWwxLjUtMS41di02TDAgMHoiIGNsYXNzPSJzdDIiLz4mI3hhOwk8cGF0aCBkPSJNOSA5TDcuNSA3LjVoLTZMMCA5eiIgY2xhc3M9InN0MCIvPiYjeGE7CTxwYXRoIGQ9Ik0xLjUgMS41aDZ2NmgtNnoiIGNsYXNzPSJzdDIiLz4mI3hhOwk8cGF0aCBkPSJNMTAuNSAwTDEyIDEuNWg2TDE5LjUgMHoiIGNsYXNzPSJzdDAiLz4mI3hhOwk8cGF0aCBkPSJNMTkuNSA5VjBMMTggMS41djZ6IiBjbGFzcz0ic3QxIi8+JiN4YTsJPHBhdGggZD0iTTEwLjUgOUwxMiA3LjV2LTZMMTAuNSAweiIgY2xhc3M9InN0MCIvPiYjeGE7CTxwYXRoIGQ9Ik0xOS41IDlMMTggNy41aC02TDEwLjUgOXoiIGNsYXNzPSJzdDEiLz4mI3hhOwk8cGF0aCBkPSJNMTIgMS41aDZ2NmgtNnoiIGNsYXNzPSJzdDMiLz4mI3hhOwk8cGF0aCBkPSJNMjEgMGwxLjUgMS41aDZMMzAgMHoiIGNsYXNzPSJzdDAiLz4mI3hhOwk8cGF0aCBkPSJNMzAgOVYwbC0xLjUgMS41djZ6IiBjbGFzcz0ic3QxIi8+JiN4YTsJPHBhdGggZD0iTTIxIDlsMS41LTEuNXYtNkwyMSAweiIgY2xhc3M9InN0MCIvPiYjeGE7CTxwYXRoIGQ9Ik0zMCA5bC0xLjUtMS41aC02TDIxIDl6IiBjbGFzcz0ic3QxIi8+JiN4YTsJPHBhdGggZD0iTTIyLjUgMS41aDZ2NmgtNnoiIGNsYXNzPSJzdDMiLz4mI3hhOwk8cGF0aCBkPSJNMCAxMmwxLjUgMS41aDZMOSAxMnoiIGNsYXNzPSJzdDAiLz4mI3hhOwk8cGF0aCBkPSJNOSAyMXYtOWwtMS41IDEuNXY2eiIgY2xhc3M9InN0MSIvPiYjeGE7CTxwYXRoIGQ9Ik0wIDIxbDEuNS0xLjV2LTZMMCAxMnoiIGNsYXNzPSJzdDAiLz4mI3hhOwk8cGF0aCBkPSJNOSAyMWwtMS41LTEuNWgtNkwwIDIxeiIgY2xhc3M9InN0MSIvPiYjeGE7CTxwYXRoIGQ9Ik0xLjUgMTMuNWg2djZoLTZ6IiBjbGFzcz0ic3QzIi8+JiN4YTsJPHBhdGggZD0iTTEwLjUgMTJsMS41IDEuNWg2bDEuNS0xLjV6IiBjbGFzcz0ic3QyIi8+JiN4YTsJPHBhdGggZD0iTTE5LjUgMjF2LTlMMTggMTMuNXY2eiIgY2xhc3M9InN0MSIvPiYjeGE7CTxwYXRoIGQ9Ik0xMC41IDIxbDEuNS0xLjV2LTZMMTAuNSAxMnoiIGNsYXNzPSJzdDIiLz4mI3hhOwk8cGF0aCBkPSJNMTkuNSAyMUwxOCAxOS41aC02TDEwLjUgMjF6IiBjbGFzcz0ic3QwIi8+JiN4YTsJPHBhdGggZD0iTTEyIDEzLjVoNnY2aC02em05LTEuNWwxLjUgMS41aDZMMzAgMTJ6IiBjbGFzcz0ic3QyIi8+JiN4YTsJPHBhdGggZD0iTTMwIDIxdi05bC0xLjUgMS41djZ6IiBjbGFzcz0ic3QxIi8+JiN4YTsJPHBhdGggZD0iTTIxIDIxbDEuNS0xLjV2LTZMMjEgMTJ6IiBjbGFzcz0ic3QyIi8+JiN4YTsJPHBhdGggZD0iTTMwIDIxbC0xLjUtMS41aC02TDIxIDIxeiIgY2xhc3M9InN0MCIvPiYjeGE7CTxwYXRoIGQ9Ik0yMi41IDEzLjVoNnY2aC02eiIgY2xhc3M9InN0MiIvPiYjeGE7PC9zdmc+;" parent="7" vertex="1">
                    <mxGeometry width="30" height="21" relative="1" as="geometry">
                        <mxPoint x="15" y="19" as="offset"/>
                    </mxGeometry>
                </mxCell>
                <mxCell id="22" style="edgeStyle=orthogonalEdgeStyle;html=1;exitX=1;exitY=0.5;exitDx=0;exitDy=0;entryX=0;entryY=0.5;entryDx=0;entryDy=0;strokeColor=#000000;fontColor=#000000;startArrow=none;startFill=0;endArrow=classic;endFill=1;" parent="1" source="9" target="20" edge="1">
                    <mxGeometry relative="1" as="geometry">
                        <Array as="points">
                            <mxPoint x="320" y="560"/>
                            <mxPoint x="320" y="630"/>
                            <mxPoint x="600" y="630"/>
                            <mxPoint x="600" y="555"/>
                        </Array>
                    </mxGeometry>
                </mxCell>
                <mxCell id="9" value="" style="strokeColor=#dddddd;shadow=1;strokeWidth=1;rounded=1;absoluteArcSize=1;arcSize=2;fontColor=#000000;" parent="1" vertex="1">
                    <mxGeometry x="180" y="530" width="130" height="60" as="geometry"/>
                </mxCell>
                <mxCell id="10" value="&lt;font color=&quot;#000000&quot;&gt;Offline St&lt;/font&gt;&lt;br&gt;BigQuery" style="editableCssRules=.*;html=1;fontColor=#999999;shape=image;verticalLabelPosition=middle;labelBackgroundColor=#ffffff;verticalAlign=middle;labelPosition=right;align=left;spacingLeft=20;part=1;points=[];imageAspect=0;image=data:image/svg+xml,PHN2ZyB4bWxucz0iaHR0cDovL3d3dy53My5vcmcvMjAwMC9zdmciIHhtbG5zOnY9Imh0dHBzOi8vdmVjdGEuaW8vbmFubyIgd2lkdGg9IjIwLjAwMTA0NTIyNzA1MDc4IiBoZWlnaHQ9IjIwLjAwMTA0NTIyNzA1MDc4IiBmaWxsLXJ1bGU9ImV2ZW5vZGQiIHZpZXdCb3g9IjAgMCAyMC4wMDEwNDUyMjcwNTA3OCAyMC4wMDEwNDUyMjcwNTA3OCI+JiN4YTsJPHN0eWxlIHR5cGU9InRleHQvY3NzIj4mI3hhOwkuc3Qwe2ZpbGw6I2FlY2JmYTt9JiN4YTsJLnN0MXtmaWxsOiM2NjlkZjY7fSYjeGE7CS5zdDJ7ZmlsbDojNDI4NWY0O30mI3hhOwk8L3N0eWxlPiYjeGE7CTxwYXRoIGNsYXNzPSJzdDAiIGQ9Ik00LjczIDguODN2Mi42M2E0LjkxIDQuOTEgMCAwIDAgMS43MSAxLjc0VjguODN6Ii8+JiN4YTsJPHBhdGggY2xhc3M9InN0MSIgZD0iTTcuODkgNi40MXY3LjUzQTcuNjIgNy42MiAwIDAgMCA5IDE0YTggOCAwIDAgMCAxIDBWNi40MXoiLz4mI3hhOwk8cGF0aCBjbGFzcz0ic3QwIiBkPSJNMTEuNjQgOS44NnYzLjI5YTUgNSAwIDAgMCAxLjctMS44MlY5Ljg2eiIvPiYjeGE7CTxwYXRoIGNsYXNzPSJzdDIiIGQ9Ik0xNS43NCAxNC4zMmwtMS40MiAxLjQyYS40Mi40MiAwIDAgMCAwIC42bDMuNTQgMy41NGEuNDIuNDIgMCAwIDAgLjU5IDBsMS40My0xLjQzYS40Mi40MiAwIDAgMCAwLS41OWwtMy41NC0zLjU0YS40Mi40MiAwIDAgMC0uNiAwIi8+JiN4YTsJPHBhdGggY2xhc3M9InN0MSIgZD0iTTkgMGE5IDkgMCAxIDAgMCAxOEE5IDkgMCAxIDAgOSAwbTAgMTUuNjlhNi42OCA2LjY4IDAgMCAxIC4wMDctMTMuMzYgNi42OCA2LjY4IDAgMCAxIDQuNzI3IDExLjQwM0E2LjY4IDYuNjggMCAwIDEgOSAxNS42OSIvPiYjeGE7PC9zdmc+;" parent="9" vertex="1">
                    <mxGeometry width="30" height="30" relative="1" as="geometry">
                        <mxPoint x="15" y="15" as="offset"/>
                    </mxGeometry>
                </mxCell>
                <mxCell id="16" style="edgeStyle=orthogonalEdgeStyle;html=1;exitX=0.5;exitY=1;exitDx=0;exitDy=0;entryX=1;entryY=0.5;entryDx=0;entryDy=0;fontColor=#000000;startArrow=none;startFill=0;endArrow=classic;endFill=1;strokeColor=#000000;" parent="1" source="18" target="7" edge="1">
                    <mxGeometry relative="1" as="geometry">
                        <mxPoint x="565" y="510" as="sourcePoint"/>
                    </mxGeometry>
                </mxCell>
                <mxCell id="17" style="edgeStyle=orthogonalEdgeStyle;html=1;exitX=0;exitY=0.5;exitDx=0;exitDy=0;entryX=0.5;entryY=0;entryDx=0;entryDy=0;strokeColor=#000000;fontColor=#000000;startArrow=none;startFill=0;endArrow=classic;endFill=1;" parent="1" source="18" target="9" edge="1">
                    <mxGeometry relative="1" as="geometry">
                        <mxPoint x="500" y="480" as="sourcePoint"/>
                    </mxGeometry>
                </mxCell>
                <mxCell id="18" value="" style="shadow=1;strokeWidth=1;rounded=1;absoluteArcSize=1;arcSize=2;labelBackgroundColor=none;" parent="1" vertex="1">
                    <mxGeometry x="510" y="440" width="130" height="60" as="geometry"/>
                </mxCell>
                <mxCell id="19" value="&lt;font color=&quot;#000000&quot;&gt;Get Price&lt;/font&gt;&lt;br&gt;Cloud Run" style="editableCssRules=.*;html=1;fontColor=#999999;shape=image;verticalLabelPosition=middle;labelBackgroundColor=#ffffff;verticalAlign=middle;labelPosition=right;align=left;spacingLeft=20;part=1;points=[];imageAspect=0;image=data:image/svg+xml,PHN2ZyB4bWxucz0iaHR0cDovL3d3dy53My5vcmcvMjAwMC9zdmciIHhtbG5zOnY9Imh0dHBzOi8vdmVjdGEuaW8vbmFubyIgd2lkdGg9IjM2NS40NjQ5OTY3NzA0MjQ5MyIgaGVpZ2h0PSIzNzkuMjIyOTk0NDYzNTc3OTUiIHZpZXdCb3g9IjAgMCA5Ni42OTU5OTkxNDU1MDc4MSAxMDAuMzM1OTk4NTM1MTU2MjUiPiYjeGE7PHN0eWxlIHR5cGU9InRleHQvY3NzIj4mI3hhOwkuc3Qwe2ZpbGw6IzQyODVmNDt9JiN4YTsJLnN0MXtmaWxsOiNhZWNiZmE7fSYjeGE7PC9zdHlsZT4mI3hhOwk8cGF0aCBjbGFzcz0ic3QwIiBkPSJNMjkuNzk0IDEwMC4zMzZMNDYuOTIgNTAuMTY4aDQ5Ljc3NnpNMCA5OS42NzFsMTIuOTc2LTQ5LjUwMkgyOS4yMkwxNi44OTcgOTIuMDU0eiIvPiYjeGE7CTxwYXRoIGNsYXNzPSJzdDEiIGQ9Ik0yOS43OTQgMEw0Ni45MiA1MC4xNjhoNDkuNzc2ek0wIC42NjZsMTIuOTc2IDQ5LjUwMkgyOS4yMkwxNi44OTcgOC4yODN6Ii8+JiN4YTs8L3N2Zz4=;fillColor=#FFFFFF;" parent="18" vertex="1">
                    <mxGeometry width="30" height="30" relative="1" as="geometry">
                        <mxPoint x="15" y="15" as="offset"/>
                    </mxGeometry>
                </mxCell>
                <mxCell id="20" value="" style="shadow=1;strokeWidth=1;rounded=1;absoluteArcSize=1;arcSize=2;labelBackgroundColor=none;" parent="1" vertex="1">
                    <mxGeometry x="650" y="525" width="130" height="60" as="geometry"/>
                </mxCell>
                <mxCell id="21" value="&lt;font color=&quot;#000000&quot;&gt;Feast UI&lt;/font&gt;&lt;br&gt;Cloud Run" style="editableCssRules=.*;html=1;fontColor=#999999;shape=image;verticalLabelPosition=middle;labelBackgroundColor=#ffffff;verticalAlign=middle;labelPosition=right;align=left;spacingLeft=20;part=1;points=[];imageAspect=0;image=data:image/svg+xml,PHN2ZyB4bWxucz0iaHR0cDovL3d3dy53My5vcmcvMjAwMC9zdmciIHhtbG5zOnY9Imh0dHBzOi8vdmVjdGEuaW8vbmFubyIgd2lkdGg9IjM2NS40NjQ5OTY3NzA0MjQ5MyIgaGVpZ2h0PSIzNzkuMjIyOTk0NDYzNTc3OTUiIHZpZXdCb3g9IjAgMCA5Ni42OTU5OTkxNDU1MDc4MSAxMDAuMzM1OTk4NTM1MTU2MjUiPiYjeGE7PHN0eWxlIHR5cGU9InRleHQvY3NzIj4mI3hhOwkuc3Qwe2ZpbGw6IzQyODVmNDt9JiN4YTsJLnN0MXtmaWxsOiNhZWNiZmE7fSYjeGE7PC9zdHlsZT4mI3hhOwk8cGF0aCBjbGFzcz0ic3QwIiBkPSJNMjkuNzk0IDEwMC4zMzZMNDYuOTIgNTAuMTY4aDQ5Ljc3NnpNMCA5OS42NzFsMTIuOTc2LTQ5LjUwMkgyOS4yMkwxNi44OTcgOTIuMDU0eiIvPiYjeGE7CTxwYXRoIGNsYXNzPSJzdDEiIGQ9Ik0yOS43OTQgMEw0Ni45MiA1MC4xNjhoNDkuNzc2ek0wIC42NjZsMTIuOTc2IDQ5LjUwMkgyOS4yMkwxNi44OTcgOC4yODN6Ii8+JiN4YTs8L3N2Zz4=;fillColor=#FFFFFF;" parent="20" vertex="1">
                    <mxGeometry width="30" height="30" relative="1" as="geometry">
                        <mxPoint x="15" y="15" as="offset"/>
                    </mxGeometry>
                </mxCell>
                <mxCell id="27" style="edgeStyle=orthogonalEdgeStyle;html=1;exitX=0.5;exitY=1;exitDx=0;exitDy=0;entryX=0.75;entryY=0;entryDx=0;entryDy=0;strokeColor=#000000;fontColor=#000000;startArrow=none;startFill=0;endArrow=classic;endFill=1;jumpStyle=arc;" parent="1" source="25" target="9" edge="1">
                    <mxGeometry relative="1" as="geometry"/>
                </mxCell>
                <mxCell id="28" style="edgeStyle=orthogonalEdgeStyle;jumpStyle=arc;html=1;exitX=0.5;exitY=1;exitDx=0;exitDy=0;entryX=0.5;entryY=0;entryDx=0;entryDy=0;strokeColor=#000000;fontColor=#000000;startArrow=none;startFill=0;endArrow=classic;endFill=1;" parent="1" source="25" target="7" edge="1">
                    <mxGeometry relative="1" as="geometry"/>
                </mxCell>
                <mxCell id="25" value="" style="shadow=1;strokeWidth=1;rounded=1;absoluteArcSize=1;arcSize=2;labelBackgroundColor=none;" parent="1" vertex="1">
                    <mxGeometry x="650" y="440" width="130" height="60" as="geometry"/>
                </mxCell>
                <mxCell id="26" value="&lt;font color=&quot;#000000&quot;&gt;Clowler&lt;/font&gt;&lt;br&gt;Cloud Run" style="editableCssRules=.*;html=1;fontColor=#999999;shape=image;verticalLabelPosition=middle;labelBackgroundColor=#ffffff;verticalAlign=middle;labelPosition=right;align=left;spacingLeft=20;part=1;points=[];imageAspect=0;image=data:image/svg+xml,PHN2ZyB4bWxucz0iaHR0cDovL3d3dy53My5vcmcvMjAwMC9zdmciIHhtbG5zOnY9Imh0dHBzOi8vdmVjdGEuaW8vbmFubyIgd2lkdGg9IjM2NS40NjQ5OTY3NzA0MjQ5MyIgaGVpZ2h0PSIzNzkuMjIyOTk0NDYzNTc3OTUiIHZpZXdCb3g9IjAgMCA5Ni42OTU5OTkxNDU1MDc4MSAxMDAuMzM1OTk4NTM1MTU2MjUiPiYjeGE7PHN0eWxlIHR5cGU9InRleHQvY3NzIj4mI3hhOwkuc3Qwe2ZpbGw6IzQyODVmNDt9JiN4YTsJLnN0MXtmaWxsOiNhZWNiZmE7fSYjeGE7PC9zdHlsZT4mI3hhOwk8cGF0aCBjbGFzcz0ic3QwIiBkPSJNMjkuNzk0IDEwMC4zMzZMNDYuOTIgNTAuMTY4aDQ5Ljc3NnpNMCA5OS42NzFsMTIuOTc2LTQ5LjUwMkgyOS4yMkwxNi44OTcgOTIuMDU0eiIvPiYjeGE7CTxwYXRoIGNsYXNzPSJzdDEiIGQ9Ik0yOS43OTQgMEw0Ni45MiA1MC4xNjhoNDkuNzc2ek0wIC42NjZsMTIuOTc2IDQ5LjUwMkgyOS4yMkwxNi44OTcgOC4yODN6Ii8+JiN4YTs8L3N2Zz4=;fillColor=#FFFFFF;" parent="25" vertex="1">
                    <mxGeometry width="30" height="30" relative="1" as="geometry">
                        <mxPoint x="15" y="15" as="offset"/>
                    </mxGeometry>
                </mxCell>
                <mxCell id="36" style="edgeStyle=orthogonalEdgeStyle;html=1;exitX=1;exitY=0.5;exitDx=0;exitDy=0;entryX=0.5;entryY=1;entryDx=0;entryDy=0;strokeColor=#000000;" parent="1" source="31" target="35" edge="1">
                    <mxGeometry relative="1" as="geometry"/>
                </mxCell>
                <mxCell id="38" style="edgeStyle=orthogonalEdgeStyle;html=1;exitX=1;exitY=0.5;exitDx=0;exitDy=0;entryX=0;entryY=0.5;entryDx=0;entryDy=0;strokeColor=#000000;" parent="1" source="31" target="37" edge="1">
                    <mxGeometry relative="1" as="geometry">
                        <Array as="points">
                            <mxPoint x="410" y="970"/>
                            <mxPoint x="640" y="970"/>
                            <mxPoint x="640" y="870"/>
                        </Array>
                    </mxGeometry>
                </mxCell>
                <mxCell id="31" value="イベント駆動&lt;br&gt;MLパイプライン" style="rounded=0;whiteSpace=wrap;html=1;labelBackgroundColor=none;fontColor=#000000;fillColor=#FFFFFF;" parent="1" vertex="1">
                    <mxGeometry x="260" y="840" width="120" height="60" as="geometry"/>
                </mxCell>
                <mxCell id="32" value="" style="strokeColor=#dddddd;shadow=1;strokeWidth=1;rounded=1;absoluteArcSize=1;arcSize=2;labelBackgroundColor=none;fontColor=#000000;fillColor=#FFFFFF;" parent="1" vertex="1">
                    <mxGeometry x="160" y="670" width="150" height="60" as="geometry"/>
                </mxCell>
                <mxCell id="33" value="&lt;font color=&quot;#000000&quot;&gt;Name&lt;/font&gt;&lt;br&gt;GKE on-Prem" style="editableCssRules=.*;html=1;fontColor=#999999;shape=image;verticalLabelPosition=middle;labelBackgroundColor=#ffffff;verticalAlign=middle;labelPosition=right;align=left;spacingLeft=20;part=1;points=[];imageAspect=0;image=data:image/svg+xml,PHN2ZyB4bWxucz0iaHR0cDovL3d3dy53My5vcmcvMjAwMC9zdmciIHhtbG5zOnY9Imh0dHBzOi8vdmVjdGEuaW8vbmFubyIgd2lkdGg9IjQwMi4zNDMyMDA2ODM1OTM3NSIgaGVpZ2h0PSI0MTYuMDAyNTMyOTU4OTg0NCIgdmlld0JveD0iMCAwLjAwMDQ5OTk2Mzc2MDM3NTk3NjYgNDAyLjM0MzIwMDY4MzU5Mzc1IDQxNi4wMDI1MzI5NTg5ODQ0Ij4mI3hhOwk8c3R5bGUgdHlwZT0idGV4dC9jc3MiPiYjeGE7CS5zdDB7ZmlsbDojNDI4NWY0O30mI3hhOwkuc3Qxe2ZpbGw6IzY2OWRmNjt9JiN4YTsJLnN0MntmaWxsOiNhZWNiZmE7fSYjeGE7CTwvc3R5bGU+JiN4YTsJPHBhdGggY2xhc3M9InN0MiIgZD0iTTM2Ni4xNyA5Mi4wMDNjLTE5LjA1IDAtMzYgMTYuODItMzYgMzUuNzYgMCAxMi42MiA4LjQ2IDI1LjI0IDE5LjA1IDMxLjU1djE0Ny4zbC0xMTAuMDUgNjUuMjEgMTYuOTMgMjcuMzUgMTE4LjUxLTY5LjQyYzQuMjQtMi4xIDguNDctOC40MSA4LjQ3LTE0Ljczdi0xNTUuNjdjMTIuNzEtNi4zNSAxOS4wOS0xOC45MyAxOS4wOS0zMS41NSAyLjA4LTE4Ljk0LTE0Ljg1LTM1LjgtMzYtMzUuOHptLTM4LjExLTIzLjFMMjA5LjU1IDEuNTgzYy00LjI0LTIuMTEtMTAuNTktMi4xMS0xNi45MyAwTDU3LjE3IDc5LjQxM0EzNiAzNiAwIDAgMCAzNiA3My4xMDNjLTE5IDAtMzYgMTYuODMtMzYgMzUuNzZzMTYuOTMgMzUuNzcgMzYgMzUuNzcgMzYtMTYuODMgMzYtMzUuNzdsMTI5LjEtNzMuNjIgMTEwIDYzLjExem0tMTQzLjg5IDI3Ny42OHEtOS41MyAwLTE5IDYuMzFsLTExMC02My4xMXYtMTI2LjIyaC0zNHYxMzQuNjNjMCA2LjMyIDQuMjMgMTIuNjMgOC40NiAxNC43M2wxMTguNTQgNjUuMjF2Mi4xMWMwIDE4LjkzIDE2LjkzIDM1Ljc2IDM2IDM1Ljc2czM2LTE2LjgzIDM2LTM1Ljc2LTE3LTMzLjY2LTM2LTMzLjY2eiIvPiYjeGE7CTxwYXRoIGNsYXNzPSJzdDEiIGQ9Ik05Ny4zOCAxMzYuMjEzbDEwNS44MiA1OC45MSAxMDMuNy01OC45MS0xMDMuNy02MXptLTYuMzUgNjcuMzJsMTEyLjE3IDYzLjExdi01MC40OWwtMTEyLjE3LTY1LjIxem0wIDYzLjExbDExMi4xNyA2NS4yMXYtNDQuMTdsLTExMi4xNy02NS4yMnoiLz4mI3hhOwk8cGF0aCBjbGFzcz0ic3QwIiBkPSJNMjAzLjE3IDIxNi4xMjN2NTAuNTZsMTEyLjE2LTY1LjI5di01MC4zOXptOTItMjBhOC4xNiA4LjE2IDAgMSAxIDguMTYtOC4xNiA4LjE5IDguMTkgMCAwIDEtOC4xNiA4LjE2em0tOTIgOTEuNTJ2NDQuMTZsMTEyLjE2LTY1LjEydi00NC4xNnptOTItMjIuODhhOC4xNiA4LjE2IDAgMSAxIDguMTYtOC4xNiA4LjE5IDguMTkgMCAwIDEtOC4xNiA4LjE2eiIvPiYjeGE7PC9zdmc+;fillColor=#FFFFFF;" parent="32" vertex="1">
                    <mxGeometry width="29" height="30" relative="1" as="geometry">
                        <mxPoint x="15" y="15" as="offset"/>
                    </mxGeometry>
                </mxCell>
                <mxCell id="35" value="mlflow&lt;br&gt;Model Registry" style="rounded=0;whiteSpace=wrap;html=1;labelBackgroundColor=none;fontColor=#000000;fillColor=#FFFFFF;" parent="1" vertex="1">
                    <mxGeometry x="490" y="720" width="120" height="60" as="geometry"/>
                </mxCell>
                <mxCell id="40" style="edgeStyle=orthogonalEdgeStyle;html=1;exitX=0.5;exitY=0;exitDx=0;exitDy=0;entryX=1;entryY=0.5;entryDx=0;entryDy=0;strokeColor=#000000;" parent="1" source="37" target="35" edge="1">
                    <mxGeometry relative="1" as="geometry"/>
                </mxCell>
                <mxCell id="47" style="edgeStyle=orthogonalEdgeStyle;html=1;exitX=0.5;exitY=1;exitDx=0;exitDy=0;entryX=0.5;entryY=0;entryDx=0;entryDy=0;strokeColor=#000000;" parent="1" source="37" target="42" edge="1">
                    <mxGeometry relative="1" as="geometry"/>
                </mxCell>
                <mxCell id="37" value="MLパイプライン&lt;br&gt;CD" style="rounded=0;whiteSpace=wrap;html=1;labelBackgroundColor=none;fontColor=#000000;fillColor=#FFFFFF;" parent="1" vertex="1">
                    <mxGeometry x="670" y="840" width="120" height="60" as="geometry"/>
                </mxCell>
                <mxCell id="39" value="modelのハッシュをpushする" style="shape=callout;whiteSpace=wrap;html=1;perimeter=calloutPerimeter;" parent="1" vertex="1">
                    <mxGeometry x="470" y="880" width="120" height="80" as="geometry"/>
                </mxCell>
                <mxCell id="44" style="edgeStyle=orthogonalEdgeStyle;html=1;exitX=0;exitY=0.5;exitDx=0;exitDy=0;entryX=1;entryY=0.5;entryDx=0;entryDy=0;strokeColor=#000000;" parent="1" source="42" target="43" edge="1">
                    <mxGeometry relative="1" as="geometry"/>
                </mxCell>
                <mxCell id="42" value="機械学習API&lt;br&gt;コンテナー" style="rounded=0;whiteSpace=wrap;html=1;labelBackgroundColor=none;fontColor=#000000;fillColor=#FFFFFF;" parent="1" vertex="1">
                    <mxGeometry x="670" y="1000" width="120" height="60" as="geometry"/>
                </mxCell>
                <mxCell id="45" style="edgeStyle=orthogonalEdgeStyle;html=1;exitX=0;exitY=0.5;exitDx=0;exitDy=0;entryX=0;entryY=0.5;entryDx=0;entryDy=0;strokeColor=#000000;" parent="1" source="43" target="31" edge="1">
                    <mxGeometry relative="1" as="geometry">
                        <Array as="points">
                            <mxPoint x="210" y="1030"/>
                            <mxPoint x="210" y="870"/>
                        </Array>
                    </mxGeometry>
                </mxCell>
                <mxCell id="43" value="Cloud Monitoring" style="rounded=0;whiteSpace=wrap;html=1;labelBackgroundColor=none;fontColor=#000000;fillColor=#FFFFFF;" parent="1" vertex="1">
                    <mxGeometry x="430" y="1000" width="120" height="60" as="geometry"/>
                </mxCell>
                <mxCell id="46" value="Trigger&lt;br&gt;Cloud Buildの場合Webhookを使用してトリガーする" style="shape=callout;whiteSpace=wrap;html=1;perimeter=calloutPerimeter;" parent="1" vertex="1">
                    <mxGeometry x="230" y="910" width="120" height="100" as="geometry"/>
                </mxCell>
                <mxCell id="48" value="以下モデル毎にコンテナーを運用する&lt;br&gt;・サイド決定用モデル&lt;br&gt;・ベット決定用モデル" style="shape=callout;whiteSpace=wrap;html=1;perimeter=calloutPerimeter;" parent="1" vertex="1">
                    <mxGeometry x="820" y="810" width="220" height="100" as="geometry"/>
                </mxCell>
                <mxCell id="49" value="AutoPilotのスポットインスタンス" style="shape=callout;whiteSpace=wrap;html=1;perimeter=calloutPerimeter;" parent="1" vertex="1">
                    <mxGeometry x="827" y="910" width="220" height="100" as="geometry"/>
                </mxCell>
                <mxCell id="51" value="DNNを使用する場合、&lt;br&gt;Cloud Run・AutoPilotのどちらかを使用する" style="shape=callout;whiteSpace=wrap;html=1;perimeter=calloutPerimeter;" vertex="1" parent="1">
                    <mxGeometry x="110" y="750" width="150" height="80" as="geometry"/>
                </mxCell>
                <mxCell id="52" value="MLflow&lt;br&gt;Tracking" style="rounded=0;whiteSpace=wrap;html=1;labelBackgroundColor=none;fontColor=#000000;fillColor=#FFFFFF;" vertex="1" parent="1">
                    <mxGeometry x="490" y="660" width="120" height="60" as="geometry"/>
                </mxCell>
                <mxCell id="54" style="edgeStyle=orthogonalEdgeStyle;html=1;exitX=1;exitY=0.5;exitDx=0;exitDy=0;entryX=1;entryY=0.5;entryDx=0;entryDy=0;strokeColor=#000000;" edge="1" parent="1" source="42" target="52">
                    <mxGeometry relative="1" as="geometry">
                        <mxPoint x="680" y="1039.9999999999998" as="sourcePoint"/>
                        <mxPoint x="560" y="1039.9999999999998" as="targetPoint"/>
                        <Array as="points">
                            <mxPoint x="810" y="1030"/>
                            <mxPoint x="810" y="690"/>
                        </Array>
                    </mxGeometry>
                </mxCell>
                <mxCell id="41" value="MLパイプラインから受け取ったハッシュを持つmodelを読み込む" style="shape=callout;whiteSpace=wrap;html=1;perimeter=calloutPerimeter;" parent="1" vertex="1">
                    <mxGeometry x="660" y="640" width="120" height="100" as="geometry"/>
                </mxCell>
                <mxCell id="55" value="Trading App" style="rounded=0;whiteSpace=wrap;html=1;labelBackgroundColor=none;fontColor=#000000;fillColor=#FFFFFF;" vertex="1" parent="1">
                    <mxGeometry x="670" y="1109" width="120" height="60" as="geometry"/>
                </mxCell>
                <mxCell id="57" style="edgeStyle=orthogonalEdgeStyle;html=1;exitX=0.5;exitY=0;exitDx=0;exitDy=0;strokeColor=#000000;entryX=0.5;entryY=1;entryDx=0;entryDy=0;" edge="1" parent="1" source="55" target="42">
                    <mxGeometry relative="1" as="geometry">
                        <mxPoint x="680" y="1039.9999999999998" as="sourcePoint"/>
                        <mxPoint x="560" y="1039.9999999999998" as="targetPoint"/>
                    </mxGeometry>
                </mxCell>
                <mxCell id="60" style="edgeStyle=orthogonalEdgeStyle;html=1;exitX=0.5;exitY=1;exitDx=0;exitDy=0;entryX=1;entryY=0.5;entryDx=0;entryDy=0;strokeColor=#000000;fontColor=#000000;startArrow=none;startFill=0;endArrow=classic;endFill=1;jumpStyle=arc;" edge="1" parent="1" source="7" target="55">
                    <mxGeometry relative="1" as="geometry">
                        <Array as="points">
                            <mxPoint x="405" y="640"/>
                            <mxPoint x="830" y="640"/>
                            <mxPoint x="830" y="1139"/>
                        </Array>
                        <mxPoint x="415" y="600" as="sourcePoint"/>
                        <mxPoint x="660" y="565" as="targetPoint"/>
                    </mxGeometry>
                </mxCell>
                <mxCell id="62" style="edgeStyle=orthogonalEdgeStyle;html=1;exitX=0.5;exitY=1;exitDx=0;exitDy=0;entryX=0.5;entryY=0;entryDx=0;entryDy=0;strokeColor=#000000;fontColor=#000000;startArrow=none;startFill=0;endArrow=classic;endFill=1;" edge="1" parent="1" source="9" target="31">
                    <mxGeometry relative="1" as="geometry">
                        <Array as="points">
                            <mxPoint x="245" y="640"/>
                            <mxPoint x="320" y="640"/>
                        </Array>
                        <mxPoint x="320" y="570" as="sourcePoint"/>
                        <mxPoint x="660" y="565" as="targetPoint"/>
                    </mxGeometry>
                </mxCell>
                <mxCell id="50" value="DNNを使用しない場合、&lt;br&gt;Cloud Buildを使用する&lt;br&gt;月40Hまで無料" style="shape=callout;whiteSpace=wrap;html=1;perimeter=calloutPerimeter;" vertex="1" parent="1">
                    <mxGeometry x="270" y="750" width="150" height="80" as="geometry"/>
                </mxCell>
                <mxCell id="58" value="http request" style="shape=callout;whiteSpace=wrap;html=1;perimeter=calloutPerimeter;position2=0;" vertex="1" parent="1">
                    <mxGeometry x="800" y="1040" width="220" height="90" as="geometry"/>
                </mxCell>
            </root>
        </mxGraphModel>
    </diagram>
</mxfile>